<svg width="500" height="500" viewBox="0 0 500 500" fill="none" xmlns="http://www.w3.org/2000/svg">
<path fill-rule="evenodd" clip-rule="evenodd" d="M359.23 155.941C370.26 158.941 380.39 162.901 387.39 172.461C389.8 175.761 390.41 181.691 393.4 184.251C398.54 188.671 411.11 189.841 417.51 195.031C420 210.091 410.63 225.711 396.56 231.271C388.29 234.541 379.32 235.241 370.62 236.631C355.78 239.001 339.65 243.911 328.36 254.311C325.13 257.281 316.64 266.211 316.54 270.641C316.46 273.901 321.46 281.391 322.53 285.231C325.15 294.551 325.77 304.331 323.94 313.861C319.81 335.351 302.39 354.011 281.05 359.191C269.86 361.911 257.85 361.051 246.43 361.051C238.23 361.051 229.61 361.791 221.48 360.711C221.48 342.401 221.48 324.081 221.48 305.771C207.84 307.381 203.65 309.571 189.09 306.831C185.42 315.441 181.76 324.051 178.09 332.661C185.79 340.431 190.82 349.671 188.26 361.011C165.66 361.011 143.07 361.011 120.47 361.011C119.57 353.561 120.12 345.811 120.11 338.301C120.1 324.511 120.12 310.731 120.12 296.941C120.12 273.631 117.83 245.561 122.27 222.941C129.11 188.111 157.2 159.141 191.92 151.741C205.48 148.841 219.48 149.571 233.27 149.591C243.17 149.601 253.5 148.771 263.35 149.871C269.59 150.581 275.16 153.731 281.21 154.671C288.63 155.821 311.36 155.511 318.81 154.321C323.25 140.901 338.41 131.991 351.1 141.971C355.8 145.661 356.75 150.931 359.23 155.941ZM347.95 163.761C347.62 159.431 348.83 154.821 345.61 151.241C340.05 145.061 330.67 149.031 329.24 156.611C328.35 161.311 331.05 164.861 332.08 169.101C329.54 170.581 326.99 172.051 324.45 173.531C322.88 171.001 321.32 168.471 319.75 165.941C312.91 164.651 302.89 164.291 296.26 166.281C311.87 182.871 316.39 208.421 304.54 228.601C299.9 236.491 293.53 241.591 286.5 247.121C289.13 248.651 292.05 249.541 294.73 250.991C299.88 253.771 304.08 257.531 308.47 261.321C311.88 258.061 314.05 253.381 317.3 249.841C324.3 242.191 332.92 236.581 342.55 232.821C352.12 229.091 362.33 226.901 372.46 225.331C388.17 222.901 404.25 220.721 406.91 202.001C401.41 197.701 388.11 195.621 384 191.781C382.47 190.351 382.34 187.471 381.77 185.551C380.59 181.581 378.56 177.761 375.54 174.881C367.83 167.561 356.86 168.181 347.95 163.761ZM221.46 160.641C211.62 159.341 200.64 160.551 191.1 163.231C183.12 165.471 175.32 168.731 168.43 173.361C148.73 186.571 135.69 207.661 132.37 231.161C130.88 241.701 131.41 252.481 131.43 263.101C131.45 276.261 131.42 289.421 131.42 302.581C131.42 312.611 131.43 322.631 131.42 332.661C131.42 338.451 130.92 344.481 131.75 350.191C146.98 350.191 162.21 350.191 177.45 350.191C175.75 342.461 170.23 341.801 165.02 337.361C170.23 319.191 180.72 302.901 182.75 283.771C183.85 273.441 181.72 264.511 179.35 254.641C182.54 253.701 185.74 252.761 188.93 251.821C196.62 264.911 193.33 281.891 191.61 296.001C200.45 299.231 213.44 298.461 221.46 293.181C221.46 249.001 221.46 204.821 221.46 160.641ZM232.88 243.351C247.4 244.611 266.16 245.311 279.24 238.131C303.53 224.791 307.62 188.371 285.78 170.601C274.33 161.281 261.58 160.281 247.37 160.291C242.56 160.301 237.64 159.981 232.88 160.641C232.88 188.211 232.88 215.781 232.88 243.351ZM363.07 183.751C370.15 181.761 374.45 192.051 367.45 194.671C359.92 197.491 355.79 185.801 363.07 183.751ZM232.87 349.951C248.86 351.251 274.42 352.031 288.67 344.371C317.92 328.641 322.74 286.201 296.54 265.141C283.6 254.741 268.92 254.201 253.01 254.231C246.39 254.241 239.41 253.651 232.87 254.641C232.87 286.411 232.87 318.181 232.87 349.951Z" fill="white"/>
</svg>
